HIERARCHY
ROOT Hips
{
 OFFSET 0.000000 0.000000 0.000000
 CHANNELS 6 Xposition Yposition Zposition Yrotation Xrotation Zrotation
 JOINT Chest
 {
  OFFSET 0.000000 9.585900 0.002600
  CHANNELS 3 Yrotation Xrotation Zrotation
  JOINT Chest2
  {
   OFFSET 0.000000 9.601200 -0.005300
   CHANNELS 3 Yrotation Xrotation Zrotation
   JOINT Chest3
   {
    OFFSET 0.000000 9.561800 0.000000
    CHANNELS 3 Yrotation Xrotation Zrotation
    JOINT Chest4
    {
     OFFSET 0.000000 9.552100 0.000000
     CHANNELS 3 Yrotation Xrotation Zrotation
     JOINT Neck
     {
      OFFSET 0.000000 14.453000 0.000000
      CHANNELS 3 Yrotation Xrotation Zrotation
      JOINT Head
      {
       OFFSET 0.000000 8.936500 -0.011300
       CHANNELS 3 Yrotation Xrotation Zrotation
       End Site
       {
        OFFSET 0.000000 17.073600 -0.006000
       }
      }
     }
     JOINT RightCollar
     {
      OFFSET -2.921100 9.558500 0.000000
      CHANNELS 3 Yrotation Xrotation Zrotation
      JOINT RightShoulder
      {
       OFFSET -13.519700 0.000000 0.000000
       CHANNELS 3 Yrotation Xrotation Zrotation
       JOINT RightElbow
       {
        OFFSET 0.000000 -29.696600 0.000000
        CHANNELS 3 Yrotation Xrotation Zrotation
        JOINT RightWrist
        {
         OFFSET 0.000000 -24.004700 0.000000
         CHANNELS 3 Yrotation Xrotation Zrotation
         End Site
         {
          OFFSET 0.000000 -17.728500 0.000000
         }
        }
       }
      }
     }
     JOINT LeftCollar
     {
      OFFSET 2.921100 9.558500 0.000000
      CHANNELS 3 Yrotation Xrotation Zrotation
      JOINT LeftShoulder
      {
       OFFSET 13.519700 0.000000 0.000000
       CHANNELS 3 Yrotation Xrotation Zrotation
       JOINT LeftElbow
       {
        OFFSET 0.000000 -29.696600 0.000000
        CHANNELS 3 Yrotation Xrotation Zrotation
        JOINT LeftWrist
        {
         OFFSET 0.000000 -24.004700 0.000000
         CHANNELS 3 Yrotation Xrotation Zrotation
         End Site
         {
          OFFSET 0.000000 -17.728500 0.000000
         }
        }
       }
      }
     }
    }
   }
  }
 }
 JOINT RightHip
 {
  OFFSET -7.771700 -0.012900 -0.001300
  CHANNELS 3 Yrotation Xrotation Zrotation
  JOINT RightKnee
  {
   OFFSET 0.000000 -40.869800 0.001200
   CHANNELS 3 Yrotation Xrotation Zrotation
   JOINT RightAnkle
   {
    OFFSET 0.000000 -39.717900 0.002100
    CHANNELS 3 Yrotation Xrotation Zrotation
    JOINT RightToe
    {
     OFFSET 0.000000 -4.965400 11.033500
     CHANNELS 3 Yrotation Xrotation Zrotation
     End Site
     {
      OFFSET 0.000000 -1.423100 5.872300
     }
    }
   }
  }
 }
 JOINT LeftHip
 {
  OFFSET 7.771700 -0.012900 -0.001300
  CHANNELS 3 Yrotation Xrotation Zrotation
  JOINT LeftKnee
  {
   OFFSET 0.000000 -40.869800 0.001200
   CHANNELS 3 Yrotation Xrotation Zrotation
   JOINT LeftAnkle
   {
    OFFSET 0.000000 -39.717900 0.002100
    CHANNELS 3 Yrotation Xrotation Zrotation
    JOINT LeftToe
    {
     OFFSET 0.000000 -4.965400 11.033500
     CHANNELS 3 Yrotation Xrotation Zrotation
     End Site
     {
      OFFSET 0.000000 -1.423100 5.872300
     }
    }
   }
  }
 }
}
MOTION
Frames: 5
Frame Time: 0.008333
-25.122115 55.282394 8.101233 -176.840088 -17.650042 -1.680856 -0.156330 16.380315 0.677084 -0.021339 1.646865 0.080917 -0.041655 2.783437 0.151619 -0.106762 14.476954 0.687597 0.561049 15.396536 -6.384628 2.084877 -9.381329 -7.011164 0.761989 -0.112395 2.338445 0.407458 -6.561032 -8.557995 -79.682216 -47.083668 116.276323 -21.572760 -9.427054 -6.588403 -5.652851 -2.332644 1.490987 1.929743 -9.308122 9.524381 69.022145 -51.494028 -116.395612 7.630062 -9.904749 8.338844 -0.300643 -57.425055 10.684280 -84.467023 88.387770 -89.469746 -10.407037 -21.399607 11.931485 0.016700 0.260772 -0.318128 10.835090 -53.506964 -6.969202 108.728753 77.151887 105.566838 -8.774993 -24.393126 3.056211 0.011742 0.104324 -0.007365
-25.113200 55.285288 8.094535 -176.851751 -17.663938 -1.699594 -0.134239 16.369879 0.687910 -0.022461 1.658007 0.086973 -0.031113 2.743964 0.128703 -0.097216 14.487349 0.688586 0.500200 15.371032 -6.448972 2.034950 -9.406526 -7.068968 0.752317 -0.138803 2.341850 0.429701 -6.564048 -8.603419 -79.614098 -47.083016 116.183279 -21.567479 -9.438399 -6.560478 -5.660018 -2.338924 1.504466 1.890557 -9.286017 9.545940 68.977695 -51.582424 -116.383618 7.600144 -9.895258 8.348312 -0.343614 -57.404448 10.756857 -85.002388 88.386214 -90.029841 -10.458873 -21.484521 12.061707 0.020501 0.259485 -0.332831 10.781015 -53.507966 -6.911471 108.790533 77.139141 105.614408 -8.747334 -24.361402 3.051441 -0.006782 0.067168 -0.015554
-25.112080 55.286639 8.090843 -176.846358 -17.660616 -1.673284 -0.145604 16.354115 0.652505 -0.018608 1.636122 0.076050 -0.030444 2.745949 0.130468 -0.088423 14.476594 0.677007 0.440135 15.345628 -6.518708 1.987159 -9.431260 -7.133166 0.747486 -0.163369 2.342583 0.443665 -6.569369 -8.650646 -79.547495 -47.034559 116.088265 -21.497996 -9.389469 -6.542633 -5.658401 -2.343202 1.515289 1.825229 -9.292899 9.565963 68.925455 -51.655756 -116.328959 7.565654 -9.882579 8.364346 -0.349927 -57.396023 10.751385 -85.524314 88.380748 -90.601747 -10.498154 -21.568595 12.203261 0.027496 0.256653 -0.345302 10.805930 -53.507676 -6.953852 108.814857 77.139290 105.636927 -8.735307 -24.385270 3.052241 -0.017139 0.089078 -0.019674
-25.107359 55.288078 8.085474 -176.848640 -17.666649 -1.665830 -0.143335 16.346928 0.639753 -0.016833 1.615886 0.067857 -0.028849 2.740116 0.127504 -0.084636 14.494521 0.682300 0.379262 15.299112 -6.607168 1.942825 -9.456792 -7.204382 0.747734 -0.206584 2.327024 0.444495 -6.541987 -8.660115 -79.499887 -47.027115 116.033214 -21.469088 -9.357002 -6.546613 -5.655682 -2.345500 1.519251 1.730712 -9.372259 9.566209 68.840741 -51.676541 -116.164453 7.502574 -9.845560 8.362613 -0.343469 -57.387309 10.744741 -86.253259 88.376782 -91.339029 -10.542367 -21.656101 12.334676 0.055727 0.293573 -0.404842 10.807626 -53.501834 -6.958175 108.842302 77.133152 105.662791 -8.728085 -24.389791 3.050686 -0.026723 0.088137 -0.022882
-25.103255 55.288824 8.080524 -176.846425 -17.669478 -1.656107 -0.147070 16.327260 0.620786 -0.017269 1.619942 0.068812 -0.028702 2.729445 0.122251 -0.079252 14.503628 0.684210 0.316790 15.251435 -6.699024 1.902785 -9.483096 -7.279896 0.746407 -0.233192 2.317832 0.447742 -6.532617 -8.678497 -79.427019 -47.037947 115.967575 -21.459753 -9.361740 -6.572275 -5.654567 -2.348572 1.521872 1.686774 -9.391780 9.562321 68.800853 -51.760668 -116.133163 7.492225 -9.838653 8.390405 -0.351978 -57.380860 10.745550 -87.030215 88.369691 -92.124052 -10.621710 -21.750194 12.472714 0.047563 0.282415 -0.394984 10.804937 -53.500093 -6.961027 108.869211 77.127296 105.678994 -8.725775 -24.389465 3.054438 -0.035801 0.084569 -0.027090
